HIERARCHY
ROOT Hips
{
	OFFSET -0.001795 -0.223333 0.028219
	CHANNELS 6 Xposition Yposition Zposition Zrotation Yrotation Xrotation 
	JOINT LeftUpLeg
	{
		OFFSET 0.069520 -0.091406 -0.006815
		CHANNELS 3 Zrotation Yrotation Xrotation
		JOINT LeftLeg
		{
			OFFSET 0.034277 -0.375199 -0.004496
			CHANNELS 3 Zrotation Yrotation Xrotation
			JOINT LeftFoot
			{
				OFFSET -0.013596 -0.397961 -0.043693
				CHANNELS 3 Zrotation Yrotation Xrotation
				JOINT LeftToe
				{
					OFFSET 0.026358 -0.055791 0.119288
					CHANNELS 3 Zrotation Yrotation Xrotation
					End Site
					{
						OFFSET 0.000000 0.000000 0.000000
					}
				}
			}
		}
	}
	JOINT RightUpLeg
	{
		OFFSET -0.067670 -0.090522 -0.004320
		CHANNELS 3 Zrotation Yrotation Xrotation
		JOINT RightLeg
		{
			OFFSET -0.038290 -0.382569 -0.008850
			CHANNELS 3 Zrotation Yrotation Xrotation
			JOINT RightFoot
			{
				OFFSET 0.015774 -0.398415 -0.042312
				CHANNELS 3 Zrotation Yrotation Xrotation
				JOINT RightToe
				{
					OFFSET -0.025372 -0.048144 0.123348
					CHANNELS 3 Zrotation Yrotation Xrotation
					End Site
					{
						OFFSET 0.000000 0.000000 0.000000
					}
				}
			}
		}
	}
	JOINT Spine
	{
		OFFSET -0.002533 0.108963 -0.026696
		CHANNELS 3 Zrotation Yrotation Xrotation
		JOINT Spine1
		{
			OFFSET 0.005487 0.135180 0.001092
			CHANNELS 3 Zrotation Yrotation Xrotation
			JOINT Spine2
			{
				OFFSET 0.001457 0.052922 0.025425
				CHANNELS 3 Zrotation Yrotation Xrotation
				JOINT Neck
				{
					OFFSET -0.002778 0.213870 -0.042857
					CHANNELS 3 Zrotation Yrotation Xrotation
					JOINT Head
					{
						OFFSET 0.005152 0.064970 0.051349
						CHANNELS 3 Zrotation Yrotation Xrotation
						End Site
						{
							OFFSET 0.000000 0.000000 0.000000
						}
					}
				}
				JOINT LeftShoulder
				{
					OFFSET 0.078845 0.121749 -0.034090
					CHANNELS 3 Zrotation Yrotation Xrotation
					JOINT LeftArm
					{
						OFFSET 0.090977 0.030469 -0.008868
						CHANNELS 3 Zrotation Yrotation Xrotation
						JOINT LeftForeArm
						{
							OFFSET 0.259612 -0.012772 -0.027456
							CHANNELS 3 Zrotation Yrotation Xrotation
							JOINT LeftHand
							{
								OFFSET 0.249234 0.008986 -0.001171
								CHANNELS 3 Zrotation Yrotation Xrotation
								End Site
								{
									OFFSET 0.000000 0.000000 0.000000
								}
							}
						}
					}
				}
				JOINT RightShoulder
				{
					OFFSET -0.081759 0.118833 -0.038615
					CHANNELS 3 Zrotation Yrotation Xrotation
					JOINT RightArm
					{
						OFFSET -0.096012 0.032551 -0.009143
						CHANNELS 3 Zrotation Yrotation Xrotation
						JOINT RightForeArm
						{
							OFFSET -0.253742 -0.013329 -0.021401
							CHANNELS 3 Zrotation Yrotation Xrotation
							JOINT RightHand
							{
								OFFSET -0.255298 0.007772 -0.005559
								CHANNELS 3 Zrotation Yrotation Xrotation
								End Site
								{
									OFFSET 0.000000 0.000000 0.000000
								}
							}
						}
					}
				}
			}
		}
	}
}
MOTION
Frames: 10
Frame Time: 0.050000
-0.900230 0.859675 -0.424014 -4.746904 73.107290 10.288118 25.854394 -15.208782 -57.328266 -44.133911 2.743962 51.940527 28.174464 47.129277 23.264534 0.000000 0.000000 0.000000 17.267581 -6.592838 -51.516300 -18.520630 -0.223996 40.424825 6.896973 13.610606 -2.120455 0.000000 0.000000 0.000000 -14.192700 -17.134242 59.231927 0.258171 0.874905 -36.995374 8.705090 32.021187 38.296800 12.416990 5.693912 -37.461428 0.000000 0.000000 0.000000 -18.501935 -9.539217 -16.025382 -62.814249 -11.095678 -2.112203 168.264754 -78.246388 179.313903 0.000000 0.000000 0.000000 36.090447 -21.022223 5.788025 54.319717 18.586202 -4.644964 -103.629653 77.577265 -55.875926 0.000000 0.000000 0.000000 
-0.908469 0.857367 -0.421577 -2.018771 73.370912 12.858077 25.305948 -14.826190 -55.689628 -54.544601 5.891157 52.649400 35.728103 55.180489 22.099806 0.000000 0.000000 0.000000 17.186902 -7.013195 -52.169684 -18.771071 -0.039780 40.441538 7.028845 13.872465 -2.498728 0.000000 0.000000 0.000000 -13.959566 -17.546935 59.795003 0.309594 0.783241 -38.540338 9.188785 31.949123 40.054338 13.644334 5.079378 -36.133619 0.000000 0.000000 0.000000 -18.575925 -9.110521 -16.203555 -62.398462 -11.542772 -2.032887 176.893561 -76.855353 169.340847 0.000000 0.000000 0.000000 36.980852 -20.824937 6.376028 53.314881 21.210741 -4.187178 -125.785796 74.138876 -73.059046 0.000000 0.000000 0.000000 
-0.917125 0.856897 -0.420052 -0.679361 73.678568 14.102158 23.782416 -14.236895 -53.024486 -61.282372 7.561224 53.415294 40.882176 57.941212 26.312282 0.000000 0.000000 0.000000 16.872577 -7.306583 -52.186314 -17.960056 -0.282657 39.706156 6.873161 13.517229 -2.695416 0.000000 0.000000 0.000000 -13.864005 -18.083849 60.418393 0.828780 0.871848 -38.098553 8.753426 32.717112 39.859340 13.408864 5.336770 -36.299766 0.000000 0.000000 0.000000 -17.823350 -9.170445 -15.709437 -64.043465 -10.644993 -3.274076 -175.778877 -75.436659 159.594177 0.000000 0.000000 0.000000 36.910921 -20.668188 6.658128 54.219651 23.575336 -2.837373 -135.900882 69.367055 -76.566950 0.000000 0.000000 0.000000 
-0.926233 0.856017 -0.418460 1.508241 75.240042 16.329259 21.298556 -14.178960 -50.823297 -65.455164 8.728671 56.165049 43.011413 56.003034 33.175395 0.000000 0.000000 0.000000 16.605900 -8.539633 -53.707232 -17.561929 -0.664028 40.738557 6.956082 13.446732 -1.732631 0.000000 0.000000 0.000000 -13.104688 -19.187057 60.745366 -0.078925 0.787313 -39.231509 10.026475 31.482445 41.191537 14.102895 4.706835 -34.392702 0.000000 0.000000 0.000000 -15.517851 -7.695614 -14.342177 -66.981424 -10.603584 -5.680816 -172.429602 -72.977753 155.029799 0.000000 0.000000 0.000000 36.274469 -20.030845 6.960954 55.927335 24.011857 -2.107528 -142.016097 64.025182 -75.167343 0.000000 0.000000 0.000000 
-0.936274 0.855107 -0.416634 -0.863000 75.547150 15.546877 23.859436 -13.747098 -50.669711 -70.637161 10.196644 53.646418 46.232650 51.928282 45.760008 0.000000 0.000000 0.000000 18.901085 -8.126360 -54.997000 -17.906051 0.157813 38.581873 6.838807 13.171954 -1.364602 0.000000 0.000000 0.000000 -12.569445 -19.068536 59.953945 2.019980 0.545317 -40.730731 10.777327 33.485071 44.673899 14.649758 5.255166 -37.674957 0.000000 0.000000 0.000000 -13.507022 -6.468965 -14.688310 -69.826680 -9.449138 -8.484504 -165.888033 -71.048757 146.024405 0.000000 0.000000 0.000000 36.749883 -20.918205 7.547402 57.684123 27.561277 0.081005 -138.855931 61.824066 -66.566669 0.000000 0.000000 0.000000 
-0.947345 0.853548 -0.414761 3.158312 76.895134 19.733143 23.603440 -13.760599 -49.799555 -71.836565 9.247567 52.886644 47.153036 52.202063 46.787574 0.000000 0.000000 0.000000 18.443320 -9.404116 -56.359506 -17.154123 -0.167480 38.764233 6.826586 12.998102 -1.127010 0.000000 0.000000 0.000000 -15.004661 -18.780203 61.128700 1.189805 1.003362 -37.025329 10.831462 32.243888 38.967715 13.387231 5.093089 -35.803780 0.000000 0.000000 0.000000 -11.235046 -4.430237 -12.550695 -73.235417 -9.870853 -10.713713 -157.521128 -68.944053 134.294202 0.000000 0.000000 0.000000 34.506476 -20.683474 5.875177 60.029906 24.863915 0.810760 -143.504268 62.967572 -73.620610 0.000000 0.000000 0.000000 
-0.958953 0.848985 -0.413881 -1.682787 78.635125 16.283132 27.430640 -14.192204 -51.666614 -73.240022 8.858546 50.412486 42.186044 49.737517 44.265171 0.000000 0.000000 0.000000 20.947453 -9.733572 -58.890821 -17.323510 0.152861 38.825779 6.752656 12.787846 -0.414053 0.000000 0.000000 0.000000 -13.321340 -19.580430 59.728712 2.098842 0.856546 -36.847714 11.105645 33.408760 39.750021 13.684699 5.446807 -36.656256 0.000000 0.000000 0.000000 -12.747258 -3.299351 -15.210450 -70.956141 -5.986461 -11.361153 -148.258603 -68.140008 121.275387 0.000000 0.000000 0.000000 35.549262 -23.047987 4.740015 59.691447 26.435597 1.648425 -146.139404 67.256768 -81.108458 0.000000 0.000000 0.000000 
-0.970591 0.841889 -0.414539 -3.848434 80.159140 14.546421 30.321617 -14.160471 -51.739388 -74.314468 7.487114 47.600160 43.167607 50.668391 44.556742 0.000000 0.000000 0.000000 23.305905 -10.212339 -61.743228 -19.236377 1.009349 40.183718 7.199259 13.490643 0.218251 0.000000 0.000000 0.000000 -13.612764 -20.382329 60.461117 3.112228 0.663648 -37.344489 11.900399 35.514124 40.458971 14.890030 5.270387 -35.913748 0.000000 0.000000 0.000000 -13.136956 -3.257351 -16.509146 -68.933393 -4.877235 -10.772791 -143.431378 -69.851400 115.549287 0.000000 0.000000 0.000000 33.787225 -24.021723 3.661998 61.041707 25.971093 2.985967 -145.862815 70.044783 -82.133602 0.000000 0.000000 0.000000 
-0.982237 0.835713 -0.418145 -3.078492 80.652791 15.019917 32.210935 -14.088098 -51.739903 -73.524162 7.028547 46.874195 45.188749 49.427793 50.730854 0.000000 0.000000 0.000000 23.897800 -10.851354 -63.596439 -19.780146 1.309068 41.561901 7.690270 14.198928 0.742314 0.000000 0.000000 0.000000 -15.054653 -20.685653 62.008799 2.567074 0.766789 -35.985264 11.932302 37.329440 38.717855 16.870519 4.280595 -35.154611 0.000000 0.000000 0.000000 -14.409126 -4.074095 -17.601792 -65.836337 -3.329201 -9.300575 -148.544413 -72.851938 123.988921 0.000000 0.000000 0.000000 31.208241 -24.514667 2.089098 63.503966 24.528199 4.927672 -138.590324 72.923283 -76.589388 0.000000 0.000000 0.000000 
-0.994431 0.830097 -0.425193 -2.850963 81.476538 14.943220 32.189135 -14.155487 -51.459729 -70.155149 5.393994 46.874413 45.049950 48.422985 53.489677 0.000000 0.000000 0.000000 24.922741 -11.306892 -65.423828 -21.269481 2.064243 42.247537 8.180962 14.769505 1.614047 0.000000 0.000000 0.000000 -16.657494 -21.080104 63.903170 3.013063 0.790420 -36.312713 12.752991 38.101821 39.514519 16.552117 4.355311 -34.005753 0.000000 0.000000 0.000000 -15.557260 -3.878288 -18.961283 -65.046677 -2.145465 -8.771599 -151.444344 -73.868924 128.248186 0.000000 0.000000 0.000000 28.196245 -23.338813 1.634391 65.091504 22.847045 6.043882 -131.236358 74.434850 -71.211035 0.000000 0.000000 0.000000 
